<?xml version="1.0" encoding="UTF-8"?>
<svg xmlns="http://www.w3.org/2000/svg" viewBox="0 0 1280 800" role="img" aria-label="GitHub Actions CI pipeline run">
  <rect width="1280" height="800" fill="#0d1117"/>
  <text x="40" y="48" font-family="Inter, system-ui" font-size="22" font-weight="700" fill="#c9d1d9">Susu / Chit Fund CI</text>
  <text x="40" y="76" font-family="JetBrains Mono, monospace" font-size="12" fill="#8b949e">commit 33866df · main · 4 jobs · 6m 14s</text>
  <line x1="40" y1="100" x2="1240" y2="100" stroke="#21262d"/>

  <g font-family="Inter, system-ui" font-size="13" fill="#c9d1d9">
    <!-- Job 1 -->
    <g transform="translate(40 124)">
      <rect width="1200" height="120" rx="10" fill="#161b22" stroke="#30363d"/>
      <circle cx="24" cy="24" r="12" fill="#3fb950"/>
      <path d="M18 24 l4 4 l8 -8" stroke="#0d1117" stroke-width="2.4" fill="none" stroke-linecap="round" stroke-linejoin="round"/>
      <text x="48" y="29" font-weight="700">Rust contracts</text>
      <text x="1160" y="29" font-family="JetBrains Mono, monospace" font-size="11" fill="#8b949e" text-anchor="end">4m 12s</text>

      <g transform="translate(48 60)" font-size="12" fill="#8b949e">
        <text y="0">✓ Install Rust toolchain (22s)</text>
        <text y="20">✓ Cache cargo (1s)</text>
        <text y="40">✓ Install Soroban CLI 21.0.0 (1m 04s)</text>
      </g>
      <g transform="translate(660 60)" font-size="12" fill="#8b949e">
        <text y="0">✓ cargo clippy -- -D warnings (12s)</text>
        <text y="20">✓ cargo fmt --check (4s)</text>
        <text y="40">✓ cargo test --workspace (38s)</text>
      </g>
    </g>

    <!-- Job 2 -->
    <g transform="translate(40 264)">
      <rect width="1200" height="120" rx="10" fill="#161b22" stroke="#30363d"/>
      <circle cx="24" cy="24" r="12" fill="#3fb950"/>
      <path d="M18 24 l4 4 l8 -8" stroke="#0d1117" stroke-width="2.4" fill="none" stroke-linecap="round" stroke-linejoin="round"/>
      <text x="48" y="29" font-weight="700">React frontend</text>
      <text x="1160" y="29" font-family="JetBrains Mono, monospace" font-size="11" fill="#8b949e" text-anchor="end">1m 24s</text>

      <g transform="translate(48 60)" font-size="12" fill="#8b949e">
        <text y="0">✓ Setup Node 20 (4s)</text>
        <text y="20">✓ npm ci (22s)</text>
        <text y="40">✓ eslint (8s)</text>
      </g>
      <g transform="translate(660 60)" font-size="12" fill="#8b949e">
        <text y="0">✓ tsc --noEmit (10s)</text>
        <text y="20">✓ vitest — 8 files, 28 tests passed (12s)</text>
        <text y="40">✓ vite build — dist/ 1.18 MB (28s)</text>
      </g>
    </g>

    <!-- Job 3 -->
    <g transform="translate(40 404)">
      <rect width="1200" height="100" rx="10" fill="#161b22" stroke="#30363d"/>
      <circle cx="24" cy="24" r="12" fill="#3fb950"/>
      <path d="M18 24 l4 4 l8 -8" stroke="#0d1117" stroke-width="2.4" fill="none" stroke-linecap="round" stroke-linejoin="round"/>
      <text x="48" y="29" font-weight="700">Deploy to Stellar Testnet</text>
      <text x="1160" y="29" font-family="JetBrains Mono, monospace" font-size="11" fill="#8b949e" text-anchor="end">18s</text>

      <g transform="translate(48 60)" font-size="12" fill="#8b949e">
        <text y="0">✓ soroban contract deploy — penalty_handler.wasm</text>
        <text y="20">✓ soroban contract deploy — savings_circle.wasm</text>
      </g>
    </g>

    <!-- Job 4 -->
    <g transform="translate(40 524)">
      <rect width="1200" height="80" rx="10" fill="#161b22" stroke="#30363d"/>
      <circle cx="24" cy="24" r="12" fill="#3fb950"/>
      <path d="M18 24 l4 4 l8 -8" stroke="#0d1117" stroke-width="2.4" fill="none" stroke-linecap="round" stroke-linejoin="round"/>
      <text x="48" y="29" font-weight="700">Vercel deploy</text>
      <text x="1160" y="29" font-family="JetBrains Mono, monospace" font-size="11" fill="#8b949e" text-anchor="end">42s</text>

      <g transform="translate(48 60)" font-size="12" fill="#8b949e">
        <text y="0">✓ amondnet/vercel-action@v25 → production</text>
      </g>
    </g>

    <!-- Status -->
    <g transform="translate(40 640)">
      <rect width="120" height="32" rx="16" fill="#238636"/>
      <text x="60" y="20" font-family="Inter, system-ui" font-size="12" font-weight="700" fill="#ffffff" text-anchor="middle">ALL PASSED</text>
      <text x="140" y="20" font-family="Inter, system-ui" font-size="12" fill="#8b949e">4 jobs, 16 steps · 6m 14s</text>
    </g>
  </g>
</svg>
