<svg xmlns="http://www.w3.org/2000/svg" viewBox="0 0 375 700" role="img" aria-label="Mobile dashboard">
  <defs>
    <linearGradient id="bg" x1="0" y1="0" x2="0" y2="1">
      <stop offset="0" stop-color="#f8fafc"/>
      <stop offset="1" stop-color="#e2e8f0"/>
    </linearGradient>
  </defs>
  <rect width="375" height="700" fill="url(#bg)"/>
  <rect x="0" y="0" width="375" height="64" fill="#ffffff"/>
  <rect x="16" y="20" width="24" height="24" rx="12" fill="#ea580c"/>
  <text x="48" y="36" font-family="Inter, system-ui" font-size="16" font-weight="700" fill="#0f172a">Susu</text>
  <rect x="280" y="18" width="80" height="28" rx="6" fill="#ea580c"/>
  <text x="320" y="36" font-family="Inter, system-ui" font-size="12" font-weight="700" fill="#fff" text-anchor="middle">Connect</text>
  <text x="16" y="92" font-family="Inter, system-ui" font-size="20" font-weight="700" fill="#0f172a">Circle #0</text>
  <text x="16" y="112" font-family="Inter, system-ui" font-size="12" fill="#64748b">Active . 4 of 4 members</text>
  <rect x="16" y="128" width="343" height="160" rx="16" fill="#fff" stroke="#e2e8f0"/>
  <text x="32" y="156" font-family="Inter, system-ui" font-size="14" font-weight="700" fill="#0f172a">Round 2 of 4</text>
  <rect x="32" y="170" width="311" height="8" rx="4" fill="#f1f5f9"/>
  <rect x="32" y="170" width="156" height="8" rx="4" fill="#f97316"/>
  <text x="32" y="206" font-family="Inter, system-ui" font-size="10" font-weight="700" fill="#64748b" letter-spacing="1">NEXT DEADLINE</text>
  <text x="32" y="232" font-family="JetBrains Mono, monospace" font-size="28" font-weight="700" fill="#0f172a">12m 04s</text>
  <text x="32" y="252" font-family="Inter, system-ui" font-size="11" fill="#94a3b8">~145 ledgers . ~5s each</text>
  <rect x="16" y="304" width="343" height="120" rx="16" fill="#fff" stroke="#e2e8f0"/>
  <text x="32" y="332" font-family="Inter, system-ui" font-size="14" font-weight="700" fill="#0f172a">Members</text>
  <g font-family="Inter, system-ui" font-size="10" fill="#0f172a">
    <rect x="32" y="348" width="148" height="28" rx="8" fill="#f0fdf4" stroke="#bbf7d0"/>
    <circle cx="46" cy="362" r="7" fill="#bbf7d0"/>
    <text x="46" y="365" font-size="8" font-weight="700" text-anchor="middle" fill="#15803d">OK</text>
    <text x="60" y="366" font-family="JetBrains Mono, monospace">GABC...XYZW</text>
    <rect x="196" y="348" width="148" height="28" rx="8" fill="#f0fdf4" stroke="#bbf7d0"/>
    <circle cx="210" cy="362" r="7" fill="#bbf7d0"/>
    <text x="210" y="365" font-size="8" font-weight="700" text-anchor="middle" fill="#15803d">OK</text>
    <text x="224" y="366" font-family="JetBrains Mono, monospace">GDEF...UVWX</text>
    <rect x="32" y="384" width="148" height="28" rx="8" fill="#fef2f2" stroke="#fecaca"/>
    <circle cx="46" cy="398" r="7" fill="#fecaca"/>
    <text x="46" y="401" font-size="9" font-weight="700" text-anchor="middle" fill="#b91c1c">X</text>
    <text x="60" y="402" font-family="JetBrains Mono, monospace">GGHI...PQRS</text>
    <rect x="196" y="384" width="148" height="28" rx="8" fill="#fffbeb" stroke="#fde68a"/>
    <circle cx="210" cy="398" r="7" fill="#fde68a"/>
    <text x="210" y="401" font-size="8" font-weight="700" text-anchor="middle" fill="#b45309">W</text>
    <text x="224" y="402" font-family="JetBrains Mono, monospace">GTUV...LMNO</text>
  </g>
  <rect x="16" y="440" width="343" height="56" rx="12" fill="#ea580c"/>
  <text x="187" y="473" font-family="Inter, system-ui" font-size="14" font-weight="700" fill="#fff" text-anchor="middle">Deposit for this round</text>
  <text x="16" y="528" font-family="Inter, system-ui" font-size="14" font-weight="700" fill="#0f172a">Live event feed</text>
  <rect x="16" y="544" width="343" height="120" rx="12" fill="#fff" stroke="#e2e8f0"/>
  <g font-family="Inter, system-ui" font-size="10" fill="#0f172a">
    <rect x="28" y="556" width="60" height="16" rx="8" fill="#dcfce7"/>
    <text x="58" y="568" font-size="9" font-weight="700" text-anchor="middle" fill="#15803d">OK Deposit</text>
    <text x="96" y="568" fill="#475569">GABC deposited 5000000 (circle #0)</text>
    <text x="320" y="568" text-anchor="end" fill="#94a3b8" font-family="JetBrains Mono, monospace" font-size="8">L31245</text>
  </g>
</svg>
